G04 EasyPC Gerber Version 20.0.2 Build 4112 *
G04 #@! TF.Part,Single*
G04 #@! TF.FileFunction,Paste,Top *
%FSLAX35Y35*%
%MOIN*%
G04 #@! TA.AperFunction,SMDPad*
%ADD143O,0.01200X0.06880*%
%ADD154O,0.01762X0.05502*%
%ADD144O,0.06880X0.01200*%
%ADD159O,0.06600X0.01900*%
%ADD167R,0.06000X0.00778*%
%ADD160R,0.08060X0.01760*%
%ADD139R,0.01760X0.09900*%
%ADD150R,0.07400X0.01900*%
%ADD156R,0.02156X0.06880*%
G04 #@! TA.AperFunction,WasherPad*
%ADD132R,0.02400X0.10400*%
G04 #@! TA.AperFunction,SMDPad*
%ADD161R,0.02900X0.05400*%
%ADD164R,0.03400X0.04200*%
%ADD141R,0.04400X0.07900*%
%ADD142R,0.04500X0.08400*%
%ADD163R,0.04912X0.04912*%
%ADD136R,0.05699X0.11211*%
%ADD152R,0.05700X0.06490*%
%ADD165R,0.06880X0.02156*%
G04 #@! TA.AperFunction,WasherPad*
%ADD133R,0.09400X0.02400*%
%AMT134*0 Rectangle Pad at angle 45*21,1,0.02400,0.10400,0,0,45*%
%ADD134T134*%
%ADD131R,0.10400X0.02400*%
G04 #@! TA.AperFunction,SMDPad*
%ADD162R,0.04200X0.03400*%
%ADD151R,0.06490X0.05700*%
%ADD153R,0.05700X0.09600*%
%ADD168R,0.05700X0.10030*%
%ADD140R,0.06400X0.07400*%
%ADD157R,0.06400X0.07900*%
%ADD138R,0.09600X0.05700*%
%ADD166R,0.10030X0.05700*%
%ADD158R,0.07900X0.06400*%
%ADD155R,0.14400X0.08455*%
G04 #@! TD.AperFunction*
%ADD10C,0.00500*%
G04 #@! TA.AperFunction,WasherPad*
%AMT135*0 Rectangle Pad at angle 135*21,1,0.02400,0.10400,0,0,135*%
%ADD135T135*%
G04 #@! TA.AperFunction,SMDPad*
%ADD137R,0.25778X0.25778*%
X0Y0D02*
D02*
D10*
X1292500Y1627789D02*
X2307500D01*
Y2002789*
X1292500*
Y1627789*
D02*
D131*
X1337000Y1727789D03*
X2263500D03*
D02*
D132*
X1317500Y1708289D03*
Y1747289D03*
X2282500Y1708789D03*
Y1746789D03*
D02*
D133*
X1299000Y1727789D03*
X2301000D03*
D02*
D134*
X1303500Y1741789D03*
X1331500Y1714289D03*
X2269000Y1741289D03*
X2296000Y1714289D03*
D02*
D135*
X1304000Y1713789D03*
X1331500Y1741789D03*
X2269000Y1714289D03*
X2296000Y1741289D03*
D02*
D136*
X1342839Y1932978D03*
X1360949D03*
X1375339D03*
X1393449D03*
X1531839Y1935978D03*
X1549949D03*
X1564339D03*
X1582449D03*
X1682839Y1932978D03*
X1700949D03*
X1715339D03*
X1733449D03*
X1871839Y1935978D03*
X1889949D03*
X1904339D03*
X1922449D03*
X2022839Y1932978D03*
X2040949D03*
X2055339D03*
X2073449D03*
X2211839Y1935978D03*
X2229949D03*
X2244339D03*
X2262449D03*
D02*
D137*
X1352287Y1959356D03*
X1384787D03*
X1541287Y1962356D03*
X1573787D03*
X1692287Y1959356D03*
X1724787D03*
X1881287Y1962356D03*
X1913787D03*
X2032287Y1959356D03*
X2064787D03*
X2221287Y1962356D03*
X2253787D03*
D02*
D138*
X1379000Y1892289D03*
Y1903289D03*
X1553000Y1909289D03*
Y1920289D03*
X1680000Y1819289D03*
Y1830289D03*
X1719000Y1892289D03*
Y1903289D03*
X1893000Y1909289D03*
Y1920289D03*
X2059000Y1892289D03*
Y1903289D03*
X2233000Y1909289D03*
Y1920289D03*
D02*
D139*
X1372000Y1834289D03*
Y1872289D03*
X1377000Y1834289D03*
Y1872289D03*
X1382000Y1834289D03*
Y1872289D03*
X1387000Y1834289D03*
Y1872289D03*
X1392000Y1834289D03*
Y1872289D03*
X1397000Y1834289D03*
Y1872289D03*
X1402000Y1834289D03*
Y1872289D03*
X1407000Y1834289D03*
Y1872289D03*
X1504500Y1834289D03*
Y1872289D03*
X1509500Y1834289D03*
Y1872289D03*
X1514500Y1834289D03*
Y1872289D03*
X1519500Y1834289D03*
Y1872289D03*
X1524500Y1834289D03*
Y1872289D03*
X1529500Y1834289D03*
Y1872289D03*
X1534500Y1834289D03*
Y1872289D03*
X1539500Y1834289D03*
Y1872289D03*
X1712000Y1834289D03*
Y1872289D03*
X1717000Y1834289D03*
Y1872289D03*
X1722000Y1834289D03*
Y1872289D03*
X1727000Y1834289D03*
Y1872289D03*
X1732000Y1834289D03*
Y1872289D03*
X1737000Y1834289D03*
Y1872289D03*
X1742000Y1834289D03*
Y1872289D03*
X1747000Y1834289D03*
Y1872289D03*
X1844500Y1834289D03*
Y1872289D03*
X1849500Y1834289D03*
Y1872289D03*
X1854500Y1834289D03*
Y1872289D03*
X1859500Y1834289D03*
Y1872289D03*
X1864500Y1834289D03*
Y1872289D03*
X1869500Y1834289D03*
Y1872289D03*
X1874500Y1834289D03*
Y1872289D03*
X1879500Y1834289D03*
Y1872289D03*
X2052000Y1834289D03*
Y1872289D03*
X2057000Y1834289D03*
Y1872289D03*
X2062000Y1834289D03*
Y1872289D03*
X2067000Y1834289D03*
Y1872289D03*
X2072000Y1834289D03*
Y1872289D03*
X2077000Y1834289D03*
Y1872289D03*
X2082000Y1834289D03*
Y1872289D03*
X2087000Y1834289D03*
Y1872289D03*
X2184500Y1834289D03*
Y1872289D03*
X2189500Y1834289D03*
Y1872289D03*
X2194500Y1834289D03*
Y1872289D03*
X2199500Y1834289D03*
Y1872289D03*
X2204500Y1834289D03*
Y1872289D03*
X2209500Y1834289D03*
Y1872289D03*
X2214500Y1834289D03*
Y1872289D03*
X2219500Y1834289D03*
Y1872289D03*
D02*
D140*
X1967500Y1670289D03*
X1982000D03*
X2013000D03*
X2027500D03*
D02*
D141*
X1913500Y1715789D03*
Y1744789D03*
X1923500Y1715789D03*
Y1744789D03*
D02*
D142*
X2110000Y1690407D03*
Y1735171D03*
X2120000Y1690407D03*
Y1735171D03*
X2130000Y1690407D03*
Y1735171D03*
X2140000Y1690407D03*
Y1735171D03*
D02*
D143*
X1664752Y1710380D03*
Y1759199D03*
X1667902Y1710380D03*
Y1759199D03*
X1671051Y1710380D03*
Y1759199D03*
X1674201Y1710380D03*
Y1759199D03*
X1677350Y1710380D03*
Y1759199D03*
X1680500Y1710380D03*
Y1759199D03*
X1683650Y1710380D03*
Y1759199D03*
X1686799Y1710380D03*
Y1759199D03*
X1689949Y1710380D03*
Y1759199D03*
X1693098Y1710380D03*
Y1759199D03*
X1696248Y1710380D03*
Y1759199D03*
D02*
D144*
X1656091Y1719041D03*
Y1722191D03*
Y1725341D03*
Y1728490D03*
Y1731640D03*
Y1734789D03*
Y1737939D03*
Y1741089D03*
Y1744238D03*
Y1747388D03*
Y1750537D03*
X1704909Y1719041D03*
Y1722191D03*
Y1725341D03*
Y1728490D03*
Y1731640D03*
Y1734789D03*
Y1737939D03*
Y1741089D03*
Y1744238D03*
Y1747388D03*
Y1750537D03*
D02*
D150*
X1371000Y1678789D03*
Y1683789D03*
Y1688789D03*
Y1693789D03*
X1393000Y1678789D03*
Y1683789D03*
Y1688789D03*
Y1693789D03*
X1423000Y1680789D03*
Y1685789D03*
Y1690789D03*
Y1695789D03*
X1445000Y1680789D03*
Y1685789D03*
Y1690789D03*
Y1695789D03*
X1475000Y1678789D03*
Y1683789D03*
Y1688789D03*
Y1693789D03*
X1497000Y1678789D03*
Y1683789D03*
Y1688789D03*
Y1693789D03*
X1527000Y1678789D03*
Y1683789D03*
Y1688789D03*
Y1693789D03*
X1549000Y1678789D03*
Y1683789D03*
Y1688789D03*
Y1693789D03*
D02*
D151*
X1311500Y1760289D03*
Y1771289D03*
X1323000Y1760289D03*
Y1771289D03*
X1337000Y1664289D03*
Y1675289D03*
X1341500Y1788289D03*
Y1799289D03*
X1349000Y1664289D03*
Y1675289D03*
X1353000Y1788289D03*
Y1799289D03*
X1358500Y1711289D03*
Y1722289D03*
X1363000Y1884289D03*
Y1895289D03*
X1370500Y1711289D03*
Y1722289D03*
X1385000Y1705789D03*
Y1716789D03*
X1387000Y1804789D03*
Y1815789D03*
X1399000Y1804789D03*
Y1815789D03*
X1400000Y1705789D03*
Y1716789D03*
X1407000Y1663789D03*
Y1674789D03*
Y1683289D03*
Y1694289D03*
X1408000Y1922789D03*
Y1933789D03*
Y1943289D03*
Y1954289D03*
X1411000Y1804789D03*
Y1815789D03*
X1418000Y1870789D03*
Y1881789D03*
X1418500Y1922789D03*
Y1933789D03*
Y1943289D03*
Y1954289D03*
X1419000Y1705789D03*
Y1716789D03*
X1429000Y1922789D03*
Y1933789D03*
Y1943289D03*
Y1954289D03*
X1434500Y1705789D03*
Y1716789D03*
X1439500Y1922789D03*
Y1933789D03*
Y1943289D03*
Y1954289D03*
X1450000Y1705789D03*
Y1716789D03*
X1461500Y1683789D03*
Y1694789D03*
X1469000Y1705789D03*
Y1716789D03*
X1480000Y1885789D03*
Y1896789D03*
X1485000Y1705789D03*
Y1716789D03*
X1486500Y1923789D03*
Y1934789D03*
Y1944289D03*
Y1955289D03*
X1491000Y1873789D03*
Y1884789D03*
X1495500Y1900289D03*
Y1911289D03*
X1497000Y1923789D03*
Y1934789D03*
Y1944289D03*
Y1955289D03*
X1498500Y1705789D03*
Y1716789D03*
X1506000Y1900289D03*
Y1911289D03*
X1507500Y1923789D03*
Y1934789D03*
Y1944289D03*
Y1955289D03*
X1511500Y1664789D03*
Y1675789D03*
Y1684289D03*
Y1695289D03*
X1518000Y1900289D03*
Y1911289D03*
Y1923789D03*
Y1934789D03*
Y1944289D03*
Y1955289D03*
X1521000Y1804789D03*
Y1815789D03*
X1523000Y1705789D03*
Y1716789D03*
X1533000Y1804789D03*
Y1815789D03*
X1538500Y1705789D03*
Y1716789D03*
X1545000Y1804789D03*
Y1815789D03*
X1550500Y1705789D03*
Y1716789D03*
X1564000Y1754789D03*
Y1765789D03*
X1571000Y1656289D03*
Y1667289D03*
X1585000Y1656289D03*
Y1667289D03*
X1600500Y1788289D03*
Y1799289D03*
X1612500Y1788289D03*
Y1799289D03*
X1618000Y1676789D03*
Y1687789D03*
X1632000Y1673789D03*
Y1684789D03*
X1633500Y1816289D03*
Y1827289D03*
X1646000Y1655289D03*
Y1666289D03*
Y1676289D03*
Y1687289D03*
X1660000Y1653789D03*
Y1664789D03*
Y1676289D03*
Y1687289D03*
X1672000Y1653789D03*
Y1664789D03*
Y1676289D03*
Y1687289D03*
X1681500Y1792789D03*
Y1803789D03*
X1684000Y1653789D03*
Y1664789D03*
X1693500Y1792789D03*
Y1803789D03*
X1703000Y1884289D03*
Y1895289D03*
X1727500Y1804789D03*
Y1815789D03*
X1739500Y1804789D03*
Y1815789D03*
X1748000Y1922789D03*
Y1933789D03*
Y1943289D03*
Y1954289D03*
X1751500Y1804789D03*
Y1815789D03*
X1755000Y1677289D03*
Y1688289D03*
X1758000Y1870789D03*
Y1881789D03*
X1758500Y1922789D03*
Y1933789D03*
Y1943289D03*
Y1954289D03*
X1765000Y1649289D03*
Y1660289D03*
X1769000Y1922789D03*
Y1933789D03*
Y1943289D03*
Y1954289D03*
X1777500Y1649289D03*
Y1660289D03*
X1779500Y1922789D03*
Y1933789D03*
Y1943289D03*
Y1954289D03*
X1820000Y1885789D03*
Y1896789D03*
X1826500Y1923789D03*
Y1934789D03*
Y1944289D03*
Y1955289D03*
X1831000Y1873789D03*
Y1884789D03*
X1835500Y1899789D03*
Y1910789D03*
X1837000Y1923789D03*
Y1934789D03*
Y1944289D03*
Y1955289D03*
X1846000Y1899789D03*
Y1910789D03*
X1847500Y1923789D03*
Y1934789D03*
Y1944289D03*
Y1955289D03*
X1850000Y1662289D03*
Y1673289D03*
X1852000Y1689289D03*
Y1700289D03*
X1858000Y1899789D03*
Y1910789D03*
Y1923789D03*
Y1934789D03*
Y1944289D03*
Y1955289D03*
X1860500Y1804289D03*
Y1815289D03*
X1862500Y1664789D03*
Y1675789D03*
Y1689289D03*
Y1700289D03*
X1872500Y1804289D03*
Y1815289D03*
X1873000Y1689289D03*
Y1700289D03*
X1884500Y1804289D03*
Y1815289D03*
X1940000Y1680789D03*
Y1691789D03*
X1941000Y1789289D03*
Y1800289D03*
X1953000Y1789289D03*
Y1800289D03*
X2021000Y1791789D03*
Y1802789D03*
X2033000Y1791789D03*
Y1802789D03*
X2043000Y1884289D03*
Y1895289D03*
X2068000Y1804289D03*
Y1815289D03*
X2070500Y1732789D03*
Y1743789D03*
X2071500Y1771789D03*
Y1782789D03*
X2080000Y1804289D03*
Y1815289D03*
X2081500Y1732789D03*
Y1743789D03*
X2088000Y1922789D03*
Y1933789D03*
Y1943289D03*
Y1954289D03*
X2092000Y1804289D03*
Y1815289D03*
X2093500Y1641789D03*
Y1652789D03*
Y1663289D03*
Y1674289D03*
X2098000Y1870789D03*
Y1881789D03*
X2098500Y1922789D03*
Y1933789D03*
Y1943289D03*
Y1954289D03*
X2109000Y1922789D03*
Y1933789D03*
Y1943289D03*
Y1954289D03*
X2110500Y1755789D03*
Y1766789D03*
X2119500Y1922789D03*
Y1933789D03*
Y1943289D03*
Y1954289D03*
X2121500Y1755789D03*
Y1766789D03*
X2160000Y1683789D03*
Y1694789D03*
Y1885789D03*
Y1896789D03*
X2166500Y1923789D03*
Y1934789D03*
Y1944289D03*
Y1955289D03*
X2171000Y1873789D03*
Y1884789D03*
X2175500Y1899789D03*
Y1910789D03*
X2177000Y1923789D03*
Y1934789D03*
Y1944289D03*
Y1955289D03*
X2186000Y1899789D03*
Y1910789D03*
X2187500Y1923789D03*
Y1934789D03*
Y1944289D03*
Y1955289D03*
X2198000Y1899789D03*
Y1910789D03*
Y1923789D03*
Y1934789D03*
Y1944289D03*
Y1955289D03*
X2203000Y1805289D03*
Y1816289D03*
X2215000Y1805289D03*
Y1816289D03*
X2227000Y1805289D03*
Y1816289D03*
X2276000Y1760789D03*
Y1771789D03*
Y1788289D03*
Y1799289D03*
X2288000Y1760789D03*
Y1771789D03*
Y1788289D03*
Y1799289D03*
D02*
D152*
X1313000Y1926289D03*
X1324000D03*
X1330500Y1905789D03*
X1341500D03*
X1360500Y1663789D03*
X1371500D03*
X1375500Y1917789D03*
X1381500Y1777789D03*
X1385000Y1663789D03*
X1386500Y1917789D03*
X1392500Y1777789D03*
X1393000Y1890789D03*
X1396000Y1663789D03*
X1404000Y1890789D03*
X1424000Y1653289D03*
X1428000Y1870289D03*
Y1882289D03*
Y1894289D03*
X1434000Y1781289D03*
X1435000Y1653289D03*
Y1669789D03*
X1439000Y1870289D03*
Y1882289D03*
Y1894289D03*
X1445000Y1781289D03*
X1446000Y1669789D03*
X1464500Y1668289D03*
X1475500D03*
X1480500Y1652789D03*
X1484000Y1780789D03*
X1486000Y1668289D03*
X1491500Y1652789D03*
X1495000Y1780789D03*
X1497000Y1668289D03*
X1530000Y1921789D03*
X1539000Y1668789D03*
X1541000Y1921789D03*
X1542000Y1652789D03*
X1549000Y1871789D03*
X1550000Y1668789D03*
X1553000Y1652789D03*
X1559000Y1891289D03*
X1560000Y1871789D03*
X1569500Y1679289D03*
X1570000Y1891289D03*
X1572000Y1691289D03*
X1580500Y1679289D03*
X1583000Y1691289D03*
X1584000Y1904789D03*
X1589500Y1705789D03*
X1590000Y1679289D03*
X1591500Y1733789D03*
X1593500Y1691289D03*
X1595000Y1719789D03*
Y1904789D03*
X1596500Y1667289D03*
X1597000Y1747789D03*
X1600500Y1705789D03*
X1601000Y1679289D03*
X1601500Y1655289D03*
X1602500Y1733789D03*
X1604500Y1691289D03*
X1606000Y1719789D03*
X1607500Y1667289D03*
X1608000Y1747789D03*
X1612500Y1655289D03*
X1614500Y1705789D03*
X1616500Y1733789D03*
X1620500Y1719789D03*
X1621500Y1747789D03*
Y1759789D03*
X1624500Y1655289D03*
X1625500Y1705789D03*
X1627500Y1733789D03*
X1631500Y1719789D03*
X1632500Y1747789D03*
Y1759789D03*
X1635500Y1655289D03*
X1650000Y1835789D03*
X1651500Y1776289D03*
X1660500Y1921789D03*
X1661000Y1835789D03*
X1662500Y1776289D03*
X1671500D03*
Y1904289D03*
Y1921789D03*
X1682500Y1776289D03*
Y1904289D03*
X1684000Y1691789D03*
X1695000D03*
X1705500D03*
X1715500Y1917789D03*
X1716500Y1691789D03*
X1726500Y1917789D03*
X1732500Y1677789D03*
Y1689789D03*
Y1701789D03*
Y1715789D03*
X1733000Y1730789D03*
Y1890789D03*
X1743500Y1677789D03*
Y1689789D03*
Y1701789D03*
Y1715789D03*
X1744000Y1730789D03*
Y1890789D03*
X1756000Y1730789D03*
X1759000Y1715789D03*
X1767000Y1730789D03*
X1768000Y1870289D03*
Y1882289D03*
Y1894289D03*
X1770000Y1715789D03*
X1779000Y1870289D03*
Y1882289D03*
Y1894289D03*
X1782000Y1675789D03*
Y1688289D03*
X1793000Y1675789D03*
Y1688289D03*
X1819500Y1793289D03*
Y1804289D03*
Y1817789D03*
Y1829789D03*
X1830500Y1793289D03*
Y1804289D03*
Y1817789D03*
Y1829789D03*
X1836500Y1777289D03*
X1847500D03*
X1870000Y1921789D03*
X1872500Y1676289D03*
X1881000Y1921789D03*
X1883500Y1676289D03*
X1889000Y1871789D03*
X1898000Y1891289D03*
X1900000Y1871789D03*
X1909000Y1891289D03*
X1924000Y1904789D03*
X1935000D03*
X1946000Y1760789D03*
X1957000D03*
X1997500Y1755289D03*
X1999000Y1922289D03*
X2008500Y1755289D03*
X2010000Y1922289D03*
X2011500Y1904289D03*
X2015500Y1767789D03*
X2022500Y1904289D03*
X2026500Y1767789D03*
X2055500Y1917789D03*
X2066500D03*
X2075000Y1889789D03*
X2086000D03*
X2108000Y1870289D03*
Y1882289D03*
Y1894289D03*
X2109000Y1671289D03*
X2119000Y1870289D03*
Y1882289D03*
Y1894289D03*
X2120000Y1671289D03*
X2129000D03*
X2140000D03*
X2149000D03*
X2160000D03*
X2210000Y1921789D03*
X2221000D03*
X2229000Y1871789D03*
X2238500Y1891289D03*
X2240000Y1871789D03*
X2249500Y1891289D03*
X2266500Y1904789D03*
X2277500D03*
D02*
D153*
X1333500Y1825289D03*
X1344500D03*
X1593000D03*
X1604000D03*
X1933000Y1828289D03*
X1944000D03*
X2014000Y1826789D03*
X2025000D03*
X2271500Y1824789D03*
X2282500D03*
D02*
D154*
X1311500Y1788659D03*
Y1809919D03*
X1316500Y1788659D03*
Y1809919D03*
X1321500Y1788659D03*
Y1809919D03*
X1326500Y1788659D03*
Y1809919D03*
X1571000Y1788659D03*
Y1809919D03*
X1576000Y1788659D03*
Y1809919D03*
X1581000Y1788659D03*
Y1809919D03*
X1586000Y1788659D03*
Y1809919D03*
X1652000Y1793659D03*
Y1814919D03*
X1657000Y1793659D03*
Y1814919D03*
X1662000Y1793659D03*
Y1814919D03*
X1667000Y1793659D03*
Y1814919D03*
X1911500Y1792159D03*
Y1813419D03*
X1916500Y1792159D03*
Y1813419D03*
X1921500Y1792159D03*
Y1813419D03*
X1926500Y1792159D03*
Y1813419D03*
X1991500Y1792159D03*
Y1813419D03*
X1996500Y1792159D03*
Y1813419D03*
X2001500Y1792159D03*
Y1813419D03*
X2006500Y1792159D03*
Y1813419D03*
X2247000Y1788659D03*
Y1809919D03*
X2252000Y1788659D03*
Y1809919D03*
X2257000Y1788659D03*
Y1809919D03*
X2262000Y1788659D03*
Y1809919D03*
D02*
D155*
X1319000Y1799289D03*
X1578500D03*
X1659500Y1804289D03*
X1919000Y1802789D03*
X1999000D03*
X2254500Y1799289D03*
D02*
D156*
X1792500Y1804372D03*
Y1827207D03*
X1797500Y1804372D03*
Y1827207D03*
X1802500Y1804372D03*
Y1827207D03*
X1807500Y1804372D03*
Y1827207D03*
X2083500Y1760372D03*
Y1783207D03*
X2088500Y1760372D03*
Y1783207D03*
X2093500Y1760372D03*
Y1783207D03*
X2098500Y1760372D03*
Y1783207D03*
D02*
D157*
X1408232Y1908289D03*
X1414232Y1967789D03*
X1424374Y1908289D03*
X1430374Y1967789D03*
X1493626Y1968789D03*
X1509768D03*
X1529626Y1893789D03*
X1545768D03*
X1748232Y1908289D03*
X1754232Y1967789D03*
X1764374Y1908289D03*
X1770374Y1967789D03*
X1833626Y1968789D03*
X1849768D03*
X1869626Y1893789D03*
X1885768D03*
X1911126Y1696789D03*
X1927268D03*
X2088232Y1908289D03*
X2094732Y1967789D03*
X2104374Y1908289D03*
X2110874Y1967789D03*
X2173626Y1968789D03*
X2189768D03*
X2209626Y1893789D03*
X2225768D03*
D02*
D158*
X1315500Y1888522D03*
Y1904663D03*
X1446000Y1968415D03*
Y1984557D03*
X1476500Y1968415D03*
Y1984557D03*
X1611500Y1887522D03*
Y1903663D03*
X1656500Y1888522D03*
Y1904663D03*
X1786000Y1968415D03*
Y1984557D03*
X1816500Y1968415D03*
Y1984557D03*
X1909500Y1662022D03*
Y1678163D03*
X1951500Y1887522D03*
Y1903663D03*
X1996500Y1888522D03*
Y1904663D03*
X2126500Y1968415D03*
Y1984557D03*
X2156500Y1969915D03*
Y1986057D03*
X2280500Y1918522D03*
Y1934663D03*
D02*
D159*
X1422600Y1735789D03*
Y1740789D03*
Y1745789D03*
Y1750789D03*
Y1755789D03*
Y1760789D03*
Y1765789D03*
X1445400Y1735789D03*
Y1740789D03*
Y1745789D03*
Y1750789D03*
Y1755789D03*
Y1760789D03*
Y1765789D03*
X1474600Y1735789D03*
Y1740789D03*
Y1745789D03*
Y1750789D03*
Y1755789D03*
Y1760789D03*
Y1765789D03*
X1497400Y1735789D03*
Y1740789D03*
Y1745789D03*
Y1750789D03*
Y1755789D03*
Y1760789D03*
Y1765789D03*
X1526100Y1735789D03*
Y1740789D03*
Y1745789D03*
Y1750789D03*
Y1755789D03*
Y1760789D03*
Y1765789D03*
X1548900Y1735789D03*
Y1740789D03*
Y1745789D03*
Y1750789D03*
Y1755789D03*
Y1760789D03*
Y1765789D03*
X1802100Y1747289D03*
Y1752289D03*
Y1757289D03*
Y1762289D03*
Y1767289D03*
Y1772289D03*
Y1777289D03*
X1824900Y1747289D03*
Y1752289D03*
Y1757289D03*
Y1762289D03*
Y1767289D03*
Y1772289D03*
Y1777289D03*
D02*
D160*
X1371764Y1735789D03*
Y1740789D03*
Y1745789D03*
Y1750789D03*
Y1755789D03*
Y1760789D03*
Y1765789D03*
X1392236Y1735789D03*
Y1740789D03*
Y1745789D03*
Y1750789D03*
Y1755789D03*
Y1760789D03*
Y1765789D03*
D02*
D161*
X1332500Y1871789D03*
Y1894789D03*
X1342500Y1871789D03*
Y1894789D03*
X1585000Y1871789D03*
Y1894789D03*
X1595000Y1871789D03*
Y1894789D03*
X1672500Y1871789D03*
Y1894789D03*
X1682500Y1871789D03*
Y1894789D03*
X1925000Y1871789D03*
Y1894789D03*
X1935000Y1871789D03*
Y1894789D03*
X2012500Y1871789D03*
Y1894789D03*
X2022500Y1871789D03*
Y1894789D03*
X2267500Y1871789D03*
Y1894789D03*
X2277500Y1871789D03*
Y1894789D03*
D02*
D162*
X1967700Y1754789D03*
Y1762789D03*
X1976400Y1758789D03*
X2035700Y1752289D03*
Y1760289D03*
X2044400Y1756289D03*
D02*
D163*
X1976488Y1740289D03*
X1987512D03*
X2021988D03*
X2033012D03*
D02*
D164*
X1348500Y1701089D03*
X1352500Y1692389D03*
X1356500Y1701089D03*
D02*
D165*
X1724083Y1648789D03*
Y1653789D03*
Y1658789D03*
Y1663789D03*
X1746917Y1648789D03*
Y1653789D03*
Y1658789D03*
Y1663789D03*
X2115083Y1644789D03*
Y1649789D03*
Y1654789D03*
Y1659789D03*
X2137917Y1644789D03*
Y1649789D03*
Y1654789D03*
Y1659789D03*
D02*
D166*
X1706500Y1652289D03*
Y1663289D03*
X2194500Y1651789D03*
Y1662789D03*
X2238500Y1685789D03*
Y1696789D03*
D02*
D167*
X1806258Y1675656D03*
Y1678215D03*
Y1680774D03*
Y1683333D03*
Y1685892D03*
Y1688451D03*
Y1691010D03*
Y1693569D03*
Y1696128D03*
Y1698687D03*
Y1701246D03*
Y1703805D03*
Y1706364D03*
Y1708923D03*
X1834742Y1675656D03*
Y1678215D03*
Y1680774D03*
Y1683333D03*
Y1685892D03*
Y1688451D03*
Y1691010D03*
Y1693569D03*
Y1696128D03*
Y1698687D03*
Y1701246D03*
Y1703805D03*
Y1706364D03*
Y1708923D03*
D02*
D168*
X2175500Y1700289D03*
X2186500D03*
X2195500D03*
X2196000Y1675289D03*
X2206500Y1700289D03*
X2207000Y1675289D03*
X2208500Y1649289D03*
X2215500Y1700289D03*
X2216000Y1675289D03*
X2219500Y1649289D03*
X2226500Y1700289D03*
X2227000Y1675289D03*
X2228500Y1649289D03*
X2239500D03*
X2248500D03*
X2259500D03*
X0Y0D02*
M02*
