G04 EasyPC Gerber Version 20.0.2 Build 4112 *
G04 #@! TF.Part,Single*
G04 #@! TF.FileFunction,Paste,Top *
%FSLAX35Y35*%
%MOIN*%
G04 #@! TA.AperFunction,SMDPad*
%ADD109O,0.00400X0.05306*%
%ADD110O,0.01762X0.05502*%
%ADD108O,0.05306X0.00400*%
%ADD112R,0.04912X0.13573*%
%ADD107R,0.05400X0.04500*%
%ADD106R,0.05700X0.06490*%
%ADD105R,0.06490X0.05700*%
%ADD111R,0.14400X0.08455*%
G04 #@! TD.AperFunction*
%ADD10C,0.00500*%
G04 #@! TA.AperFunction,SMDPad*
%ADD113R,0.40739X0.32471*%
X0Y0D02*
D02*
D10*
X1681500Y1776875D02*
X1941500D01*
Y1966875*
X1681500*
Y1776875*
D02*
D105*
X1756000Y1822375D03*
Y1833375D03*
X1762000Y1856375D03*
Y1867375D03*
X1768500Y1822375D03*
Y1833375D03*
X1772500Y1844875D03*
Y1855875D03*
X1812000Y1821875D03*
Y1832875D03*
X1817500Y1932375D03*
Y1943375D03*
X1822500Y1821875D03*
Y1832875D03*
X1825500Y1856875D03*
Y1867875D03*
X1830000Y1932375D03*
Y1943375D03*
X1838000Y1856875D03*
Y1867875D03*
X1852000Y1853875D03*
Y1864875D03*
X1859500Y1830375D03*
Y1841375D03*
X1862500Y1853875D03*
Y1864875D03*
X1871500Y1830375D03*
Y1841375D03*
X1876000Y1883375D03*
Y1894375D03*
Y1909375D03*
Y1920375D03*
X1884000Y1830375D03*
Y1841375D03*
X1890500Y1861875D03*
Y1872875D03*
X1891000Y1886875D03*
Y1897875D03*
Y1909375D03*
Y1920375D03*
X1896500Y1830375D03*
Y1841375D03*
X1900500Y1861875D03*
Y1872875D03*
X1909000Y1830375D03*
Y1841375D03*
X1910500Y1861875D03*
Y1872875D03*
X1921500Y1830375D03*
Y1841375D03*
D02*
D106*
X1703000Y1911875D03*
Y1922375D03*
X1714000Y1911875D03*
Y1922375D03*
X1728500Y1911875D03*
Y1922375D03*
X1739500Y1911875D03*
Y1922375D03*
X1766000Y1806875D03*
X1776500Y1868375D03*
X1777000Y1806875D03*
X1786500Y1796375D03*
Y1806875D03*
X1787500Y1868375D03*
X1796500Y1856375D03*
Y1868375D03*
X1797500Y1796375D03*
Y1806875D03*
X1807500Y1856375D03*
Y1868375D03*
X1842500Y1932375D03*
Y1942875D03*
X1853500Y1932375D03*
Y1942875D03*
D02*
D107*
X1873500Y1856625D03*
Y1864125D03*
D02*
D108*
X1827723Y1889135D03*
Y1891103D03*
Y1893072D03*
Y1895040D03*
Y1897009D03*
Y1898977D03*
Y1900946D03*
Y1902914D03*
Y1904883D03*
Y1906851D03*
Y1908820D03*
Y1910788D03*
X1864217Y1889035D03*
Y1891003D03*
Y1892972D03*
Y1894940D03*
Y1896909D03*
Y1898877D03*
Y1900846D03*
Y1902814D03*
Y1904783D03*
Y1906751D03*
Y1908720D03*
Y1910688D03*
D02*
D109*
X1835169Y1881658D03*
Y1918235D03*
X1837138Y1881658D03*
Y1918235D03*
X1839106Y1881658D03*
Y1918235D03*
X1841075Y1881658D03*
Y1918235D03*
X1843043Y1881658D03*
Y1918235D03*
X1845012Y1881658D03*
Y1918235D03*
X1846980Y1881658D03*
Y1918235D03*
X1848949Y1881658D03*
Y1918235D03*
X1850917Y1881658D03*
Y1918235D03*
X1852886Y1881658D03*
Y1918235D03*
X1854854Y1881658D03*
Y1918235D03*
X1856823Y1881658D03*
Y1918235D03*
D02*
D110*
X1784657Y1821828D03*
Y1844662D03*
X1789657Y1821828D03*
Y1844662D03*
X1794657Y1821828D03*
Y1844662D03*
X1799657Y1821828D03*
Y1844662D03*
D02*
D111*
X1792157Y1833245D03*
D02*
D112*
X1710976Y1892465D03*
X1731449D03*
D02*
D113*
X1721213Y1852308D03*
X0Y0D02*
M02*
